<?xml version="1.0" encoding="utf-8"?>
<svg xmlns="http://www.w3.org/2000/svg" viewBox="0 0 50 50" width="50px" height="50px">
  <g style="">
    <g>
      <g>
        <g style="transform-origin: 25.0005px 25.0068px;">
          <path d="M 11.903 3.563 C 15.677 11.375 27.044 12 27.044 12 C 27.102 12.004 27.161 12.012 27.22 12.023 C 27.22 12.023 27.47 12.051 27.641 11.984 C 27.809 11.922 28.001 11.953 28.001 11 C 28.001 10.863 27.845 10.543 27.309 10.145 C 26.774 9.746 25.962 9.34 25.13 9.012 C 23.473 8.355 21.782 7.977 21.782 7.977 C 21.286 7.867 20.95 7.398 21.005 6.891 C 21.063 6.383 21.489 6 22.001 6 C 27.212 6 31.423 8.094 34.313 10.313 C 35.763 11.422 36.888 12.563 37.669 13.516 C 38.056 13.996 38.36 14.426 38.579 14.805 C 38.802 15.184 39.001 15.383 39.001 16 C 39.001 16.52 38.856 16.969 38.681 17.34 L 38.681 17.344 C 38.61 17.496 38.641 17.578 38.755 17.625 L 42.345 19.063 C 42.345 19.063 43.411 19.441 44.513 20.191 C 45.614 20.949 46.899 22.156 47.001 23.945 C 47.001 23.965 47.001 23.98 47.001 24 C 47.001 24.055 47.001 24.109 46.993 24.164 C 47.04 26.715 45.001 29 45.001 29 C 45.001 29 45.509 27.297 44.001 26 C 44.001 27.508 43.536 28 43.536 28 C 43.536 28 42.899 24.621 41.001 24 C 41.001 24 41.184 25.141 40.536 27 C 40.196 25.188 38.001 23 38.001 23 C 38.001 23 38.126 24.746 37.536 26 C 36.431 23.117 35.001 22.375 35.001 22.375 C 35.001 23.215 34.563 25 34.563 25 C 34.563 25 32.774 22.375 30.001 22 L 29.966 22 C 31.919 23.98 36.809 28.543 41.001 29 C 44.329 29.363 44.876 29.707 46.001 31 C 46.001 31 44.208 30 42.001 30 C 42.626 30.5 44.169 31.332 44.001 33 C 43.919 32.125 43.544 31.75 39.001 30 C 35.563 28.676 31.196 24.918 29.2 23.102 C 29.696 24.969 30.985 27.895 34.001 28 C 33.083 28.918 32.001 29 32.001 29 C 32.001 29 34.087 30.004 35.806 30.004 C 35.872 30.004 35.934 30.004 36.001 30 C 35.794 30.5 34.001 31 34.001 31 C 34.001 31 35.458 32 38.001 32 C 37.544 32.332 35.122 33 34.001 33 L 33.001 33 C 29.532 33 27.079 30.141 25.481 27.52 C 24.473 25.879 23.888 24.508 23.505 23.516 C 20.97 25.156 21.001 27.961 21.001 27.961 C 21.001 27.973 21.001 27.988 21.001 28 C 21.001 29.91 21.763 30.992 23.106 32.004 C 24.446 33.016 26.391 33.824 28.419 34.758 C 30.446 35.691 32.571 36.766 34.223 38.508 C 35.88 40.25 37.001 42.684 37.001 46 C 37.002 46.064 36.996 46.127 36.985 46.188 C 36.995 46.246 37 46.305 37 46.365 C 36.997 46.918 36.547 47.363 35.995 47.36 L 32.37 47.341 L 29.55 47.327 L 23.105 47.294 L 19.495 47.275 L 13.995 47.247 C 13.443 47.244 12.997 46.794 13 46.242 C 13 46.203 13.003 46.164 13.007 46.125 C 13.003 46.084 13.001 46.042 13.001 46 C 13.001 43.488 11.802 41.488 10.434 39.207 C 9.856 39.359 8.888 39.813 7.938 42.348 C 7.77 42.797 7.313 43.066 6.841 42.988 C 6.368 42.914 6.016 42.512 6.001 42.031 C 6.001 42.031 5.888 38.078 8.391 35.258 C 8.122 34.633 7.907 33.949 7.704 33.25 C 7.348 33.348 7.028 33.367 6.641 33.641 C 6.001 34.09 5.36 34.836 4.966 36.266 C 4.833 36.746 4.368 37.059 3.872 36.992 C 3.376 36.93 3.005 36.508 3.001 36.012 C 3.001 36.012 3.044 35.758 3.048 35.734 L 3.036 35.734 C 3.04 35.723 3.048 35.715 3.052 35.703 C 3.052 35.449 3.036 34.332 3.528 32.773 C 4.024 31.215 5.087 29.406 7.048 28.395 C 7.075 27.961 7.223 27.227 7.462 26.129 C 7.216 26.164 7.079 26.129 6.817 26.203 C 6.044 26.422 5.313 26.816 4.837 27.547 C 4.575 27.949 4.056 28.105 3.61 27.918 C 3.165 27.73 2.919 27.25 3.024 26.777 C 3.024 26.777 3.165 26.492 3.173 26.461 L 3.165 26.453 C 3.169 26.441 3.184 26.438 3.188 26.426 C 3.266 26.141 3.473 25.168 4.368 23.918 C 5.329 22.574 7.056 21.211 9.575 21.059 C 10.009 20.363 10.657 19.703 11.251 19.031 C 11.134 19.027 11.134 19 11.001 19 C 8.302 19 6.434 19.902 6.434 19.902 C 5.993 20.109 5.466 19.973 5.184 19.574 C 4.903 19.172 4.954 18.629 5.302 18.285 C 5.302 18.285 8.556 15 13.001 15 C 14.356 15 15.161 15.148 15.864 15.324 C 16.743 14.883 17.712 14.496 18.766 14.168 C 15.477 12.551 13.333 10.457 12.04 8.59 C 10.403 6.227 10.016 4.18 10.016 4.18 C 9.962 3.883 10.044 3.582 10.239 3.352 C 10.434 3.125 10.72 2.992 11.02 3 C 11.395 3.008 11.739 3.227 11.903 3.563 Z M 32.778 39.887 C 31.431 38.473 29.556 37.484 27.583 36.574 C 25.61 35.664 23.556 34.852 21.895 33.598 C 20.243 32.352 19.013 30.52 19.005 28.016 C 19.005 27.98 18.919 22.957 23.63 21.074 C 23.735 21.031 23.845 21.004 23.958 21 C 24.407 20.98 24.813 21.266 24.954 21.691 C 24.954 21.691 25.731 24.098 27.184 26.48 C 28.122 28.012 29.306 29.438 30.649 30.266 C 28.059 26.848 27.337 24.125 27.071 22.777 L 27.032 22.586 L 27.032 22.391 C 27.032 20.836 28.2 20 29.294 20 C 41.388 20.289 45.009 24.23 45.009 24.23 C 45.009 24.188 45.009 24.148 45.005 24.109 C 45.005 24.105 45.009 24.102 45.005 24.094 C 45.005 24.082 45.005 24.07 45.001 24.055 C 44.966 23.371 44.462 22.719 43.809 22.176 C 43.919 22.41 44.001 22.672 44.001 23 C 42.181 23 42.028 21.344 42.013 21.094 C 41.86 21.027 41.661 20.941 41.661 20.941 C 41.653 20.938 41.641 20.934 41.63 20.926 L 38.013 19.484 C 38.013 19.48 38.013 19.48 38.013 19.48 C 36.833 19.008 36.348 17.598 36.868 16.492 C 36.868 16.492 36.868 16.492 36.872 16.488 C 36.931 16.359 36.962 16.238 36.981 16.129 C 36.962 16.07 36.931 15.941 36.856 15.816 C 36.704 15.559 36.454 15.195 36.114 14.781 C 35.442 13.953 34.415 12.906 33.098 11.898 C 32.153 11.176 30.895 10.566 29.665 9.957 C 29.825 10.281 30.001 10.602 30.001 11 C 30.001 12.496 29.192 13.527 28.36 13.848 C 27.699 14.107 27.088 14.035 26.868 13.995 C 26.345 13.962 23.602 13.749 20.411 12.703 C 21.005 12.961 21.552 13.242 22.235 13.465 C 22.669 13.609 22.946 14.031 22.915 14.488 C 22.88 14.945 22.54 15.32 22.091 15.398 C 19.856 15.785 18.016 16.426 16.501 17.219 C 16.266 17.34 15.993 17.363 15.739 17.285 C 15.302 17.148 14.45 17 13.001 17 C 12.688 17 12.415 17.113 12.11 17.156 C 12.583 17.215 13.165 17.23 13.493 17.348 C 13.825 17.469 14.071 17.758 14.134 18.105 C 14.2 18.457 14.071 18.813 13.802 19.047 C 12.548 20.125 11.622 21.32 10.938 22.504 C 10.759 22.813 10.431 23.004 10.071 23.004 C 9.966 23.004 9.95 23 10.001 23 C 8.552 23 7.645 23.547 6.911 24.203 C 7.649 24.078 8.423 23.973 8.778 23.984 C 9.091 23.996 9.384 24.156 9.563 24.414 C 9.743 24.668 9.79 24.996 9.696 25.297 C 8.997 27.438 9.001 29 9.001 29 C 9.001 29.414 8.743 29.789 8.356 29.938 C 7.384 30.305 6.755 30.969 6.266 31.719 C 6.977 31.387 7.727 31.047 8.231 31 C 8.735 30.957 9.192 31.293 9.298 31.789 C 9.548 32.953 9.934 34 10.403 34.988 C 10.591 35.383 10.501 35.855 10.177 36.156 C 9.681 36.609 9.325 37.172 9.032 37.746 C 9.786 37.293 10.52 37.023 10.845 37.004 C 11.22 36.98 11.571 37.168 11.766 37.488 C 13.166 39.843 14.748 42.185 14.974 45.252 L 19.505 45.275 L 23.115 45.294 L 29.56 45.327 L 32.38 45.341 L 34.986 45.355 C 34.863 42.838 34.019 41.193 32.778 39.887 Z M 35.001 17 L 33.61 17 C 33.22 17 32.845 16.844 32.567 16.566 L 31.001 15 C 31.001 15 34.583 14.793 35.001 17 Z" style="paint-order: stroke;"/>
        </g>
      </g>
    </g>
  </g>
</svg>