<svg xmlns="http://www.w3.org/2000/svg"  viewBox="0 0 50 50" width="50px" height="50px"><path d="M 11.046875 3 C 10.929688 2.996094 10.808594 3.011719 10.6875 3.050781 C 10.214844 3.207031 9.925781 3.6875 10.015625 4.179688 C 10.066406 4.464844 11.257813 10.523438 18.667969 14.171875 C 17.695313 14.476563 16.78125 14.84375 15.925781 15.265625 C 15.167969 15.089844 14.1875 15 13 15 C 8.703125 15 5.4375 18.152344 5.300781 18.285156 C 4.949219 18.628906 4.902344 19.175781 5.179688 19.574219 C 5.464844 19.976563 5.992188 20.113281 6.4375 19.902344 C 6.453125 19.890625 8.332031 19 11 19 L 11.007813 19 C 10.453125 19.628906 9.945313 20.300781 9.5 21.015625 C 5.375 21.285156 3.464844 24.855469 3.023438 26.777344 C 2.917969 27.25 3.164063 27.730469 3.609375 27.921875 C 4.054688 28.109375 4.570313 27.949219 4.835938 27.546875 C 5.449219 26.605469 6.515625 26.222656 7.402344 26.074219 C 7.179688 27.023438 7.078125 27.8125 7.035156 28.328125 C 2.996094 30.359375 2.996094 35.769531 3 36.011719 C 3.003906 36.507813 3.375 36.925781 3.867188 36.988281 C 4.359375 37.050781 4.832031 36.746094 4.964844 36.265625 C 5.515625 34.273438 6.640625 33.476563 7.578125 33.164063 C 7.773438 33.84375 8.011719 34.519531 8.304688 35.203125 C 5.894531 37.921875 5.996094 41.855469 6 42.03125 C 6.015625 42.511719 6.367188 42.910156 6.835938 42.984375 C 7.3125 43.0625 7.769531 42.796875 7.9375 42.347656 C 8.746094 40.175781 9.792969 39.414063 10.421875 39.144531 L 10.421875 39.148438 C 11.808594 41.445313 13 43.425781 13 46 C 13 46.550781 13.449219 47 14 47 L 36 47 C 36.550781 47 37 46.550781 37 46 C 37 38.628906 31.679688 36.226563 27.402344 34.296875 C 23.433594 32.507813 21 31.242188 21 27.960938 C 21 27.929688 21.355469 23.972656 25 23 C 26.070313 25.738281 28.4375 33 33.707031 33 L 34 33 C 35.121094 33 37.542969 32.332031 38 32 C 35.457031 32 34 31 34 31 C 34 31 35.792969 30.5 36 30 C 35.933594 30.003906 35.871094 30.003906 35.804688 30.003906 C 34.085938 30.003906 32 29 32 29 C 32 29 33.082031 28.917969 34 28 C 30.984375 27.894531 29.695313 24.96875 29.199219 23.101563 C 31.195313 24.917969 35.5625 28.675781 39 30 C 43.542969 31.75 43.917969 32.125 44 33 C 44.167969 31.332031 42.625 30.5 42 30 C 44.207031 30 46 31 46 31 C 44.875 29.707031 44.328125 29.363281 41 29 C 36.808594 28.542969 31.917969 23.980469 29.964844 22 L 30 22 C 32.773438 22.375 34.5625 25 34.5625 25 C 34.5625 25 35 23.214844 35 22.375 C 35 22.375 36.429688 23.117188 37.535156 26 C 38.125 24.746094 38 23 38 23 C 38 23 40.195313 25.1875 40.535156 27 C 41.183594 25.140625 41 24 41 24 C 42.898438 24.621094 43.535156 28 43.535156 28 C 43.535156 28 44 27.507813 44 26 C 45.507813 27.296875 45 29 45 29 C 45 29 47.144531 26.617188 47 24 C 47 23.988281 46.996094 23.984375 46.996094 23.972656 C 46.996094 23.964844 47 23.957031 47 23.945313 C 46.820313 20.703125 42.519531 19.125 42.371094 19.074219 L 38.753906 17.625 C 38.726563 17.617188 38.6875 17.59375 38.667969 17.539063 C 38.644531 17.480469 38.648438 17.40625 38.675781 17.34375 C 38.890625 16.886719 39 16.4375 39 16 C 39 14.066406 32.214844 6 22 6 C 21.488281 6 21.0625 6.382813 21.003906 6.890625 C 20.949219 7.398438 21.285156 7.867188 21.78125 7.976563 C 24.71875 8.628906 28 10.058594 28 11 C 28 11.453125 27.910156 11.789063 27.75 11.921875 C 27.589844 12.054688 27.292969 12.039063 27.21875 12.027344 C 27.160156 12.011719 27.105469 12.003906 27.046875 12 C 26.933594 11.996094 15.695313 11.414063 11.902344 3.5625 C 11.738281 3.226563 11.40625 3.019531 11.046875 3 Z M 31 15 C 31 15 34.582031 14.792969 35 17 L 33.609375 17 C 33.21875 17 32.84375 16.84375 32.566406 16.566406 Z M 42 21 C 42 21 44 21.207031 44 23 C 42.035156 23 42 21 42 21 Z"/></svg>