<?xml version="1.0" encoding="utf-8"?>
<svg xmlns="http://www.w3.org/2000/svg" width="50px" height="50px">
  <path d="M 11.046 3.001 C 10.928 2.997 10.808 3.012 10.686 3.053 C 10.213 3.207 9.925 3.69 10.015 4.181 C 10.065 4.466 11.257 10.524 18.665 14.174 C 17.694 14.477 16.779 14.845 15.924 15.266 C 15.166 15.09 14.185 15.001 12.998 15.001 C 8.702 15.001 5.437 18.153 5.3 18.285 C 4.95 18.629 4.903 19.176 5.18 19.575 C 5.464 19.977 5.992 20.114 6.437 19.903 C 6.452 19.891 8.33 19 10.998 19 L 11.006 19 C 10.452 19.628 9.945 20.301 9.499 21.016 C 5.374 21.286 3.464 24.856 3.024 26.777 C 2.918 27.251 3.164 27.73 3.61 27.922 C 4.055 28.109 4.571 27.949 4.836 27.547 C 5.449 26.605 6.516 26.223 7.402 26.074 C 7.18 27.025 7.078 27.812 7.035 28.329 C 2.996 30.359 2.996 35.77 3 36.012 C 3.003 36.508 3.375 36.926 3.868 36.989 C 4.359 37.052 4.831 36.746 4.965 36.266 C 5.516 34.274 6.641 33.477 7.577 33.164 C 7.773 33.845 8.011 34.52 8.304 35.202 C 5.895 37.921 5.995 41.856 6 42.03 C 6.015 42.511 6.367 42.91 6.836 42.984 C 7.312 43.063 7.769 42.797 7.938 42.348 C 8.744 40.176 9.791 39.414 10.42 39.145 L 10.42 39.15 C 11.808 41.446 12.998 43.426 12.998 46 C 12.998 46.551 13.447 47 13.998 47 L 35.995 47 C 36.546 47 36.995 46.551 36.995 46 C 36.995 38.63 31.675 36.227 27.398 34.297 C 23.43 32.507 20.997 31.242 20.997 27.961 C 20.997 27.93 21.353 23.973 24.996 23 C 26.066 25.739 28.433 32.999 33.701 32.999 L 33.995 32.999 C 35.115 32.999 37.536 32.333 37.995 32 C 35.451 32 33.995 30.999 33.995 30.999 C 33.995 30.999 35.788 30.499 35.995 30 C 35.928 30.004 35.865 30.004 35.8 30.004 C 34.08 30.004 31.995 29 31.995 29 C 31.995 29 33.077 28.918 33.995 28.001 C 30.98 27.895 29.692 24.969 29.196 23.103 C 31.191 24.919 35.558 28.676 38.993 30 C 43.536 31.75 43.911 32.124 43.993 32.999 C 44.16 31.332 42.618 30.499 41.993 30 C 44.2 30 45.993 30.999 45.993 30.999 C 44.868 29.707 44.32 29.363 40.993 29 C 36.803 28.543 31.913 23.983 29.96 22 L 29.995 22 C 32.769 22.375 34.558 25.001 34.558 25.001 C 34.558 25.001 34.995 23.214 34.995 22.375 C 34.995 22.375 36.424 23.117 37.53 26 C 38.119 24.746 37.995 23 37.995 23 C 37.995 23 40.189 25.188 40.529 27.001 C 41.177 25.141 40.993 24 40.993 24 C 42.892 24.622 43.529 28.001 43.529 28.001 C 43.529 28.001 43.993 27.509 43.993 26 C 45.501 27.297 44.993 29 44.993 29 C 44.993 29 47.137 26.618 46.993 24 C 46.993 23.989 46.988 23.984 46.988 23.973 C 46.988 23.965 46.993 23.957 46.993 23.945 C 46.813 20.705 42.513 19.125 42.364 19.075 L 38.748 17.626 C 38.721 17.617 38.681 17.595 38.661 17.54 C 38.638 17.482 38.643 17.406 38.67 17.345 C 38.885 16.888 38.993 16.44 38.993 16.001 C 38.993 14.067 32.209 6.001 21.997 6.001 C 21.485 6.001 21.06 6.385 21.001 6.892 C 20.946 7.4 21.283 7.868 21.779 7.978 C 24.715 8.63 27.995 10.06 27.995 11.001 C 27.995 11.454 27.907 11.79 27.745 11.924 C 27.585 12.056 27.289 12.04 27.214 12.029 C 27.156 12.013 27.101 12.004 27.042 12.001 C 26.929 11.996 15.694 11.415 11.901 3.564 C 11.738 3.228 11.405 3.02 11.046 3.001 Z M 30.995 15.001 C 30.995 15.001 34.576 14.793 34.995 17.001 L 33.605 17.001 C 33.214 17.001 32.839 16.844 32.562 16.567 L 30.995 15.001 Z M 41.993 21 C 41.993 21 43.993 21.208 43.993 23 C 42.029 23 41.993 21 41.993 21 Z" style="stroke: rgb(0, 0, 0); fill: rgb(255, 255, 255); stroke-width: 1.5px;"/>
</svg>